<svg xmlns="http://www.w3.org/2000/svg" width="600" height="360" viewBox="0 0 600 360" role="img">
  <title>Mathematics</title>
  <defs>
    <linearGradient id="g" x1="0" y1="0" x2="1" y2="1">
      <stop offset="0%" stop-color="#E8F7F0"/>
      <stop offset="100%" stop-color="#CFF0E3"/>
    </linearGradient>
  </defs>
  <rect width="600" height="360" rx="32" fill="url(#g)"/>
  <circle cx="470" cy="88" r="76" fill="#D8F3E6"/>
  <circle cx="118" cy="278" r="64" fill="#D8F3E6"/>
  <rect x="50" y="60" width="500" height="240" rx="28" fill="#fff" opacity=".75"/>
  <g fill="none" stroke="#087f5b" stroke-width="10" stroke-linecap="round" stroke-linejoin="round">
    <path d="M165 212l48-90 48 90"/>
    <path d="M213 122l48 90"/>
    <path d="M315 132h88"/>
    <path d="M359 88v88"/>
    <path d="M315 221h88"/>
    <path d="M359 177v88"/>
    <path d="M460 134c-23 0-42 19-42 42s19 42 42 42 42-19 42-42-19-42-42-42z"/>
    <path d="M460 134v84"/>
    <path d="M418 176h84"/>
  </g>
  <text x="56" y="320" font-family="Arial, Helvetica, sans-serif" font-size="28" font-weight="700" fill="#0f3b2c">Mathematics</text>
</svg>
